# xmcd
#
# Track frame offsets: 
#        150
#        18104
#        37303
#        57393
#        78128
#        93196
#        107605
#        128125
#        146754
#        163375
#        188238
#        207993
#        224403
#        242502
#        259666
#        274641
#        288555
#
# Disc length: 4199 seconds
#
# Revision: 0
# Processed by: cddbd v1.5.2PL0 Copyright (c) Steve Scherf et al.
# Submitted via: ExactAudioCopyFreeDBPlugin 1.0
#
DISCID=fa106511
DTITLE=General Johnson and The Chairmen of The Board - All In The Family
DYEAR=2006
DGENRE=Beach
TTITLE0=All In The Family
TTITLE1=You're The One
TTITLE2=Three Women
TTITLE3=I'll Be There For You
TTITLE4=It Ain't Easy Being Me
TTITLE5=Shoulda' Woulda' Coulda'
TTITLE6=Handsome Man
TTITLE7=The Bottom Line
TTITLE8=Please Don't Walk Away
TTITLE9=Patches
TTITLE10=Gone Fishin'
TTITLE11=Bless Your Heart
TTITLE12=It Aint't What You Do
TTITLE13=Don't Burn Bridges
TTITLE14=Jerry's In Love
TTITLE15=Somebody's Been Sleepin' (In My Bed)
TTITLE16=Three Women (Extended Mix)
EXTD=
EXTT0=
EXTT1=
EXTT2=
EXTT3=
EXTT4=
EXTT5=
EXTT6=
EXTT7=
EXTT8=
EXTT9=
EXTT10=
EXTT11=
EXTT12=
EXTT13=
EXTT14=
EXTT15=
EXTT16=
PLAYORDER=
